<?xml version="1.0" encoding="UTF-8" standalone="no"?><!DOCTYPE svg PUBLIC "-//W3C//DTD SVG 1.1//EN" "http://www.w3.org/Graphics/SVG/1.1/DTD/svg11.dtd"><svg width="100%" height="100%" viewBox="0 0 2188 2563" version="1.1" xmlns="http://www.w3.org/2000/svg" xmlns:xlink="http://www.w3.org/1999/xlink" xml:space="preserve" xmlns:serif="http://www.serif.com/" style="fill-rule:evenodd;clip-rule:evenodd;stroke-linecap:round;stroke-linejoin:round;stroke-miterlimit:1.5;"><g><g><path d="M2181.59,1948.31l-2175.34,-1330.56" style="fill:none;stroke:#000;stroke-width:12.5px;"/></g><g><path d="M1097.09,6.25l0,2550" style="fill:none;stroke:#000;stroke-width:12.5px;"/></g><g><path d="M2174.09,602.121l-2155.93,1361.78" style="fill:#0400df;stroke:#000;stroke-width:12.5px;"/></g><path d="M1097.09,6.25l404.166,1020.83" style="fill:none;stroke:#000;stroke-width:12.5px;"/><path d="M1097.09,2556.25l-400,-1516.67" style="fill:none;stroke:#000;stroke-width:12.5px;"/><path d="M1097.09,2556.25l404.166,-1529.17" style="fill:none;stroke:#000;stroke-width:12.5px;"/><path d="M1097.09,2556.25l-395.834,-1025" style="fill:none;stroke:#000;stroke-width:12.5px;"/><path d="M1097.09,2556.25l404.166,-1025" style="fill:none;stroke:#000;stroke-width:12.5px;"/><path d="M1097.09,6.25l-400,1033.33" style="fill:none;stroke:#000;stroke-width:12.5px;"/><path d="M1097.09,6.25l-395.834,1525" style="fill:none;stroke:#000;stroke-width:12.5px;"/><path d="M1097.09,6.25l404.166,1525" style="fill:none;stroke:#000;stroke-width:12.5px;"/><path d="M1101.26,1747.92l1072.83,-1145.8l-1072.83,1145.8Z" style="fill:none;stroke:#000;stroke-width:12.5px;"/><path d="M2174.09,602.121l-1477,437.462" style="fill:none;stroke:#000;stroke-width:12.5px;"/><path d="M2174.09,602.121l-672.83,929.129" style="fill:none;stroke:#000;stroke-width:12.5px;"/><path d="M2174.09,602.121l-1077,199.962" style="fill:none;stroke:#000;stroke-width:12.5px;"/><path d="M18.154,1963.9l1078.94,-215.985" style="fill:none;stroke:#000;stroke-width:12.5px;"/><path d="M18.154,1963.9l1483.1,-432.652" style="fill:none;stroke:#000;stroke-width:12.5px;"/><path d="M18.154,1963.9l1078.94,-1161.82" style="fill:none;stroke:#000;stroke-width:12.5px;"/><path d="M18.154,1963.9l678.938,-924.319" style="fill:none;stroke:#000;stroke-width:12.5px;"/><path d="M2181.59,1948.31l-1480.34,-417.056" style="fill:none;stroke:#000;stroke-width:12.5px;"/><path d="M2181.59,1948.31l-1084.5,-1146.22" style="fill:none;stroke:#000;stroke-width:12.5px;"/><path d="M6.25,617.748l1090.84,1130.17" style="fill:none;stroke:#000;stroke-width:12.5px;"/><path d="M6.25,617.748l1495.01,409.335" style="fill:none;stroke:#000;stroke-width:12.5px;"/><path d="M6.25,617.748l1090.84,184.335" style="fill:none;stroke:#000;stroke-width:12.5px;"/><path d="M6.25,617.748l695.008,913.502" style="fill:none;stroke:#000;stroke-width:12.5px;"/><path d="M2181.59,1948.31l-1084.5,-200.389" style="fill:none;stroke:#000;stroke-width:12.5px;"/><path d="M2181.59,1948.31l-680.335,-921.223l680.335,921.223Z" style="fill:none;stroke:#000;stroke-width:12.5px;"/></g></svg>