<?xml version="1.0" encoding="UTF-8" standalone="no"?><!DOCTYPE svg PUBLIC "-//W3C//DTD SVG 1.1//EN" "http://www.w3.org/Graphics/SVG/1.1/DTD/svg11.dtd"><svg width="100%" height="100%" viewBox="0 0 2268 2642" version="1.1" xmlns="http://www.w3.org/2000/svg" xmlns:xlink="http://www.w3.org/1999/xlink" xml:space="preserve" xmlns:serif="http://www.serif.com/" style="fill-rule:evenodd;clip-rule:evenodd;stroke-linecap:round;stroke-linejoin:round;stroke-miterlimit:1.5;"><g><g><path d="M2221.18,1987.89l-2175.34,-1330.56" style="fill:none;stroke:#fff;stroke-width:91.67px;"/></g><g><path d="M1136.67,45.833l0,2550" style="fill:none;stroke:#fff;stroke-width:91.67px;"/></g><g><path d="M2213.67,641.704l-2155.93,1361.78" style="fill:#0400df;stroke:#fff;stroke-width:91.67px;"/></g><path d="M1136.67,45.833l404.167,1020.83" style="fill:none;stroke:#fff;stroke-width:91.67px;"/><path d="M1136.67,2595.83l-400,-1516.67" style="fill:none;stroke:#fff;stroke-width:91.67px;"/><path d="M1136.67,2595.83l404.167,-1529.17" style="fill:none;stroke:#fff;stroke-width:91.67px;"/><path d="M1136.67,2595.83l-395.833,-1025" style="fill:none;stroke:#fff;stroke-width:91.67px;"/><path d="M1136.67,2595.83l404.167,-1025" style="fill:none;stroke:#fff;stroke-width:91.67px;"/><path d="M1136.67,45.833l-400,1033.33" style="fill:none;stroke:#fff;stroke-width:91.67px;"/><path d="M1136.67,45.833l-395.833,1525" style="fill:none;stroke:#fff;stroke-width:91.67px;"/><path d="M1136.67,45.833l404.167,1525" style="fill:none;stroke:#fff;stroke-width:91.67px;"/><path d="M1140.84,1787.5l1072.83,-1145.8l-1072.83,1145.8Z" style="fill:none;stroke:#fff;stroke-width:91.67px;"/><path d="M2213.67,641.704l-1477,437.463" style="fill:none;stroke:#fff;stroke-width:91.67px;"/><path d="M2213.67,641.704l-672.829,929.129" style="fill:none;stroke:#fff;stroke-width:91.67px;"/><path d="M2213.67,641.704l-1077,199.963" style="fill:none;stroke:#fff;stroke-width:91.67px;"/><path d="M57.737,2003.49l1078.94,-215.985" style="fill:none;stroke:#fff;stroke-width:91.67px;"/><path d="M57.737,2003.49l1483.11,-432.652" style="fill:none;stroke:#fff;stroke-width:91.67px;"/><path d="M57.737,2003.49l1078.94,-1161.82" style="fill:none;stroke:#fff;stroke-width:91.67px;"/><path d="M57.737,2003.49l678.938,-924.318" style="fill:none;stroke:#fff;stroke-width:91.67px;"/><path d="M2221.18,1987.89l-1480.33,-417.056" style="fill:none;stroke:#fff;stroke-width:91.67px;"/><path d="M2221.18,1987.89l-1084.5,-1146.22" style="fill:none;stroke:#fff;stroke-width:91.67px;"/><path d="M45.833,657.332l1090.84,1130.17" style="fill:none;stroke:#fff;stroke-width:91.67px;"/><path d="M45.833,657.332l1495.01,409.335" style="fill:none;stroke:#fff;stroke-width:91.67px;"/><path d="M45.833,657.332l1090.84,184.335" style="fill:none;stroke:#fff;stroke-width:91.67px;"/><path d="M45.833,657.332l695.009,913.501" style="fill:none;stroke:#fff;stroke-width:91.67px;"/><path d="M2221.18,1987.89l-1084.5,-200.389" style="fill:none;stroke:#fff;stroke-width:91.67px;"/><path d="M2221.18,1987.89l-680.334,-921.222l680.334,921.222Z" style="fill:none;stroke:#fff;stroke-width:91.67px;"/></g></svg>