<?xml version="1.0" encoding="UTF-8" standalone="no"?><!DOCTYPE svg PUBLIC "-//W3C//DTD SVG 1.1//EN" "http://www.w3.org/Graphics/SVG/1.1/DTD/svg11.dtd"><svg width="100%" height="100%" viewBox="0 0 2226 2600" version="1.1" xmlns="http://www.w3.org/2000/svg" xmlns:xlink="http://www.w3.org/1999/xlink" xml:space="preserve" xmlns:serif="http://www.serif.com/" style="fill-rule:evenodd;clip-rule:evenodd;stroke-linecap:round;stroke-linejoin:round;stroke-miterlimit:1.5;"><g><g><path d="M2200.34,1967.06l-2175.34,-1330.56" style="fill:none;stroke:#fff;stroke-width:50px;"/></g><g><path d="M1115.84,25l0,2550" style="fill:none;stroke:#fff;stroke-width:50px;"/></g><g><path d="M2192.84,620.871l-2155.93,1361.78" style="fill:#0400df;stroke:#fff;stroke-width:50px;"/></g><path d="M1115.84,25l404.166,1020.83" style="fill:none;stroke:#fff;stroke-width:50px;"/><path d="M1115.84,2575l-400,-1516.67" style="fill:none;stroke:#fff;stroke-width:50px;"/><path d="M1115.84,2575l404.166,-1529.17" style="fill:none;stroke:#fff;stroke-width:50px;"/><path d="M1115.84,2575l-395.834,-1025" style="fill:none;stroke:#fff;stroke-width:50px;"/><path d="M1115.84,2575l404.166,-1025" style="fill:none;stroke:#fff;stroke-width:50px;"/><path d="M1115.84,25l-400,1033.33" style="fill:none;stroke:#fff;stroke-width:50px;"/><path d="M1115.84,25l-395.834,1525" style="fill:none;stroke:#fff;stroke-width:50px;"/><path d="M1115.84,25l404.166,1525" style="fill:none;stroke:#fff;stroke-width:50px;"/><path d="M1120.01,1766.67l1072.83,-1145.8l-1072.83,1145.8Z" style="fill:none;stroke:#fff;stroke-width:50px;"/><path d="M2192.84,620.871l-1477,437.462" style="fill:none;stroke:#fff;stroke-width:50px;"/><path d="M2192.84,620.871l-672.83,929.129" style="fill:none;stroke:#fff;stroke-width:50px;"/><path d="M2192.84,620.871l-1077,199.962" style="fill:none;stroke:#fff;stroke-width:50px;"/><path d="M36.904,1982.65l1078.94,-215.985" style="fill:none;stroke:#fff;stroke-width:50px;"/><path d="M36.904,1982.65l1483.1,-432.652" style="fill:none;stroke:#fff;stroke-width:50px;"/><path d="M36.904,1982.65l1078.94,-1161.82" style="fill:none;stroke:#fff;stroke-width:50px;"/><path d="M36.904,1982.65l678.938,-924.319" style="fill:none;stroke:#fff;stroke-width:50px;"/><path d="M2200.34,1967.06l-1480.34,-417.056" style="fill:none;stroke:#fff;stroke-width:50px;"/><path d="M2200.34,1967.06l-1084.5,-1146.22" style="fill:none;stroke:#fff;stroke-width:50px;"/><path d="M25,636.498l1090.84,1130.17" style="fill:none;stroke:#fff;stroke-width:50px;"/><path d="M25,636.498l1495.01,409.335" style="fill:none;stroke:#fff;stroke-width:50px;"/><path d="M25,636.498l1090.84,184.335" style="fill:none;stroke:#fff;stroke-width:50px;"/><path d="M25,636.498l695.008,913.502" style="fill:none;stroke:#fff;stroke-width:50px;"/><path d="M2200.34,1967.06l-1084.5,-200.389" style="fill:none;stroke:#fff;stroke-width:50px;"/><path d="M2200.34,1967.06l-680.335,-921.223l680.335,921.223Z" style="fill:none;stroke:#fff;stroke-width:50px;"/></g></svg>